<svg xmlns="http://www.w3.org/2000/svg" viewBox="0 0 600 700" width="600" height="700">
  <!-- Define styles -->
  <defs>
    <style>
      .box { fill: #e8f4f8; stroke: #0288d1; stroke-width: 2; }
      .middleware { fill: #f3e5f5; stroke: #7b1fa2; stroke-width: 2; }
      .action { fill: #fff3e0; stroke: #f57c00; stroke-width: 2; }
      .text-bold { font-weight: bold; font-size: 14px; }
      .text-normal { font-size: 12px; }
      .arrow { stroke: #333; stroke-width: 2; fill: none; marker-end: url(#arrowhead); }
      .arrow-return { stroke: #d32f2f; stroke-width: 2; fill: none; marker-end: url(#arrowhead-red); stroke-dasharray: 5,5; }
    </style>
    <marker id="arrowhead" markerWidth="10" markerHeight="10" refX="9" refY="3" orient="auto">
      <polygon points="0 0, 10 3, 0 6" fill="#333" />
    </marker>
    <marker id="arrowhead-red" markerWidth="10" markerHeight="10" refX="9" refY="3" orient="auto">
      <polygon points="0 0, 10 3, 0 6" fill="#d32f2f" />
    </marker>
  </defs>

  <!-- Title -->
  <text x="300" y="30" text-anchor="middle" font-weight="bold" font-size="18">Middleware Flow</text>

  <!-- Request -->
  <rect x="200" y="60" width="200" height="50" class="box" rx="5"/>
  <text x="300" y="90" text-anchor="middle" class="text-bold">Request</text>

  <!-- Arrow down -->
  <line x1="300" y1="110" x2="300" y2="140" class="arrow"/>

  <!-- Middleware 1 BEFORE -->
  <rect x="100" y="140" width="400" height="50" class="middleware" rx="5"/>
  <text x="300" y="170" text-anchor="middle" class="text-bold">Middleware 1 - BEFORE</text>

  <!-- Arrow down -->
  <line x1="300" y1="190" x2="300" y2="220" class="arrow"/>

  <!-- Middleware 2 BEFORE -->
  <rect x="100" y="220" width="400" height="50" class="middleware" rx="5"/>
  <text x="300" y="250" text-anchor="middle" class="text-bold">Middleware 2 - BEFORE</text>

  <!-- Arrow down -->
  <line x1="300" y1="270" x2="300" y2="300" class="arrow"/>

  <!-- Controller/Action -->
  <rect x="150" y="300" width="300" height="50" class="action" rx="5"/>
  <text x="300" y="330" text-anchor="middle" class="text-bold">Controller / Action</text>

  <!-- Arrow down (returns to middleware 2) -->
  <line x1="300" y1="350" x2="300" y2="380" class="arrow-return"/>

  <!-- Middleware 2 AFTER -->
  <rect x="100" y="380" width="400" height="50" class="middleware" rx="5"/>
  <text x="300" y="410" text-anchor="middle" class="text-bold">Middleware 2 - AFTER</text>

  <!-- Arrow down (returns to middleware 1) -->
  <line x1="300" y1="430" x2="300" y2="460" class="arrow-return"/>

  <!-- Middleware 1 AFTER -->
  <rect x="100" y="460" width="400" height="50" class="middleware" rx="5"/>
  <text x="300" y="490" text-anchor="middle" class="text-bold">Middleware 1 - AFTER</text>

  <!-- Arrow down -->
  <line x1="300" y1="510" x2="300" y2="540" class="arrow-return"/>

  <!-- Response -->
  <rect x="200" y="540" width="200" height="50" class="box" rx="5"/>
  <text x="300" y="570" text-anchor="middle" class="text-bold">Response</text>

  <!-- Legend -->
  <text x="50" y="650" font-size="11" fill="#666">▼ Fluxo de entrada (descida)</text>
  <text x="50" y="670" font-size="11" fill="#d32f2f">⋯ Fluxo de saída (subida)</text>

</svg>